<?xml version="1.0" standalone="no"?>
<!DOCTYPE svg PUBLIC "-//W3C//DTD SVG 20010904//EN"
 "http://www.w3.org/TR/2001/REC-SVG-20010904/DTD/svg10.dtd">
<svg version="1.0" xmlns="http://www.w3.org/2000/svg"
 width="24.000000pt" height="24.000000pt" viewBox="0 0 24.000000 24.000000"
 preserveAspectRatio="xMidYMid meet">

<g transform="translate(0.000000,24.000000) scale(0.100000,-0.100000)"
fill="#000000" stroke="none">
<path d="M75 231 c-45 -20 -70 -60 -70 -112 0 -42 5 -53 33 -81 28 -28 39 -33
82 -33 43 0 54 5 82 33 28 28 33 39 33 82 0 42 -5 54 -31 81 -33 33 -92 46
-129 30z m94 -25 c47 -25 63 -83 37 -135 -35 -66 -137 -66 -172 0 -47 91 44
182 135 135z"/>
<path d="M60 144 c0 -6 14 -23 30 -39 l30 -29 30 29 c17 16 30 33 30 39 0 5
-13 -3 -30 -19 l-30 -29 -30 29 c-16 16 -30 24 -30 19z"/>
</g>
</svg>
